# xmcd CD database file
#
# Track frame offsets:
#	150
#	17870
#	41563
#	69249
#	92249
#	113767
#	133916
#	155497
#	178242
#	203728
#
# Disc length: 3002 seconds
#
# Revision: 0
# Processed by: cddbd v1.5.1PL0 Copyright (c) Steve Scherf et al.
# Submitted via: CDex 1.51
#
DISCID=890bb80a
DTITLE=安室奈美恵 - LOVE ENHANCED single collection
DYEAR=2002
DGENRE=Pop
TTITLE0=Say the word
TTITLE1=RESRPECT the POWER OF LOVE
TTITLE2=NEVER END
TTITLE3=LOVE 2000
TTITLE4=PLEASE SMILE AGAIN
TTITLE5=think of me
TTITLE6=SOMETHING 'BOUT THE KISS
TTITLE7=lovin' it
TTITLE8=I HAVE NEVER SEEN
TTITLE9=HimAWArl
EXTD=YEAR: 2002
EXTT0=
EXTT1=
EXTT2=
EXTT3=
EXTT4=
EXTT5=
EXTT6=
EXTT7=
EXTT8=
EXTT9=
PLAYORDER=
